<svg width="60" height="68" viewBox="0 0 60 68" fill="none" xmlns="http://www.w3.org/2000/svg">
<circle cx="30" cy="34" r="30" fill="#E24A94"/>
<path d="M27.392 21.576C26.656 20.808 26.288 19.896 26.288 18.84C26.288 17.784 26.656 16.888 27.392 16.152C28.16 15.384 29.072 15 30.128 15C31.184 15 32.08 15.384 32.816 16.152C33.584 16.888 33.968 17.784 33.968 18.84C33.968 19.896 33.584 20.808 32.816 21.576C32.08 22.312 31.184 22.68 30.128 22.68C29.072 22.68 28.16 22.312 27.392 21.576ZM29.216 26.28C32.224 26.28 33.728 27.576 33.728 30.168V45.672C33.728 46.536 33.936 47.224 34.352 47.736C34.768 48.216 35.408 48.456 36.272 48.456C37.136 48.456 38.128 47.992 39.248 47.064L40.112 48.216C37.552 50.552 34.992 51.72 32.432 51.72C28.496 51.72 26.528 49.368 26.528 44.664V28.584C24.768 29.032 23.424 29.816 22.496 30.936L21.2 29.448C22.128 28.488 23.296 27.72 24.704 27.144C26.144 26.568 27.648 26.28 29.216 26.28Z" fill="white"/>
</svg>
